<svg width="335" height="368" viewBox="0 0 335 368" fill="none" xmlns="http://www.w3.org/2000/svg">
<path d="M333.087 346.97C327.126 334.122 250.992 224.15 237.448 204.619C245.633 208.021 267.469 217.257 273.655 221.473C277.242 223.917 278.039 224.122 278.547 224.122C279.03 224.122 279.441 223.858 279.618 223.432C279.814 222.955 280.059 222.363 277.263 219.565L266.287 206.996C272.679 210.199 284.134 216.062 288.785 219.212C288.937 219.315 289.174 219.45 289.483 219.45L290.146 219.437L290.413 218.856C290.714 218.201 290.882 217.835 280.806 205.963C288.421 210.765 300.468 218.115 302.847 218.114C303.582 218.114 303.905 217.674 304.01 217.485C304.389 216.8 303.955 216.106 303.812 215.877C302.46 213.712 290.392 204.881 270.815 190.655C251.245 176.433 229.063 160.313 224.738 155.25C216.574 145.694 207.585 128.997 193.976 103.721C176.555 71.3607 158.69 59.3127 141.98 51.115C140.841 50.5562 139.433 48.8506 137.804 46.8755C135.061 43.5511 131.306 38.9992 125.613 35.8904C122.6 34.2447 118.568 33.5191 114.669 32.8175C110.154 32.0062 105.889 31.2387 104.019 29.2127C95.0336 19.4692 61.5338 0 41.1269 0L40.7559 0.00199602C19.0168 0.258484 3.64805 10.0529 2.51118 24.3744C2.26087 27.5301 3.85947 29.7417 4.81484 31.063C4.96742 31.2756 5.14593 31.5211 5.2656 31.7098C3.72584 33.3964 -0.662088 40.2896 0.0848568 52.0162C0.895626 64.7079 10.7984 71.2229 17.2576 72.5044C17.474 72.5473 17.7133 72.5703 17.9477 72.5703C18.9948 72.5703 19.7697 72.1202 20.021 71.3667C20.4349 70.1241 19.3658 68.659 16.4438 66.4664C13.2636 64.0792 13.7652 58.7937 14.3845 55.9464C16.7101 58.2698 21.6774 60.9385 25.4122 61.8087C37.5159 64.6281 52.012 75.3038 54.3236 87.6352C54.8671 90.5414 54.904 94.2989 54.9459 98.6502C55.0785 112.324 55.279 132.987 71.9072 155.868C81.4041 168.936 94.1041 177.926 107.795 184.324C103.742 193.76 97.3522 206.648 93.0022 207.953C90.9259 208.577 89.3413 208.867 88.0149 208.867C86.9229 208.867 86.0772 208.674 85.0959 208.45C83.8264 208.16 82.3864 207.83 80.1067 207.83C78.5499 207.83 77.1069 208.031 75.9321 208.41C72.4786 209.525 70.7953 211.737 70.7135 211.845L68.5355 214.878L68.4487 215.024C68.1306 215.679 68.1017 216.224 68.364 216.644C68.702 217.184 69.3822 217.345 70.1221 216.919C72.9524 215.293 77.434 213.884 78.7634 213.485C80.0438 214.147 84.3251 216.142 89.3482 216.142C91.3547 216.142 93.2595 215.818 95.0087 215.179C95.1044 215.144 95.3318 215.085 95.7865 215.085C97.6524 215.085 100.99 216.027 103.672 216.784C106.144 217.481 107.583 217.875 108.422 217.876C109.299 217.876 109.616 217.398 109.729 217.113C110.055 216.279 110.038 215.366 109.678 214.544C109.32 213.722 108.661 213.089 107.828 212.762C106.49 212.238 105.222 211.765 104.035 211.35C105.009 210.653 105.9 209.928 106.772 209.22C107.904 208.302 109.075 207.351 110.433 206.444C112.286 205.208 117.9 202.753 124.101 200.201C120.278 208.266 115.578 216.503 112.147 217.533C110.071 218.157 108.487 218.447 107.16 218.447C106.068 218.447 105.222 218.254 104.24 218.03C102.972 217.74 101.532 217.41 99.252 217.41C97.6943 217.41 96.2502 217.611 95.0765 217.99C91.624 219.105 89.9396 221.316 89.8578 221.425L87.6808 224.458L87.5941 224.604C87.2759 225.259 87.247 225.804 87.5093 226.224C87.8474 226.764 88.5275 226.924 89.2674 226.499C92.0977 224.872 96.5783 223.464 97.9077 223.065C99.1892 223.727 103.469 225.722 108.494 225.722C110.5 225.722 112.404 225.398 114.154 224.76C114.25 224.725 114.477 224.666 114.932 224.666C116.798 224.666 120.135 225.607 122.816 226.364C125.288 227.062 126.727 227.456 127.567 227.457C128.444 227.457 128.762 226.979 128.874 226.694C129.549 224.969 128.695 223.017 126.974 222.344C125.638 221.82 124.37 221.347 123.18 220.932C124.153 220.236 125.044 219.512 125.917 218.804C127.048 217.884 128.219 216.933 129.579 216.027C133.534 213.388 158.606 203.68 167.43 200.298C168.081 200.402 168.733 200.507 169.37 200.61C183.012 202.801 193.788 204.532 196.937 208.033C205.58 217.644 318.659 348.462 329.126 366.541C329.336 366.902 329.972 368 331.059 368C332.304 368 332.824 366.622 332.915 366.345L333.012 366.054L328.149 348.934C330.882 352.211 332.744 353.867 333.707 353.867C334.147 353.867 334.533 353.658 334.766 353.292C335.161 352.666 335.309 351.759 333.087 346.97Z" fill="url(#paint0_linear)"/>
<defs>
<linearGradient id="paint0_linear" x1="11.5633" y1="16.9662" x2="293.506" y2="305.178" gradientUnits="userSpaceOnUse">
<stop stop-color="#3E6AC3"/>
<stop offset="1" stop-color="#020E4A"/>
</linearGradient>
</defs>
</svg>
