<svg width="360" height="331" viewBox="0 0 360 331" fill="none" xmlns="http://www.w3.org/2000/svg">
<path d="M358.538 136.02C361.132 124.48 359.749 113.571 358.411 103.02C357.269 94.0106 356.191 85.5023 357.821 77.6019C361.685 58.8735 349.702 38.3168 338.83 22.4999C326.701 4.85563 313.576 2.35267 296.357 0.742487C295.426 0.6558 294.475 0.610962 293.531 0.610962C281.976 0.610962 272.325 7.06166 267.139 10.5271C265.793 11.4259 264.403 12.3555 263.995 12.4372C263.35 12.5658 261.84 12.5857 259.929 12.6116C254.797 12.6794 246.209 12.794 235.983 14.9791C226.018 17.1094 218.033 22.1721 218.182 26.2653C218.238 27.8157 219.375 29.8135 224.473 30.5239C235.155 32.0135 244.599 34.9001 252.187 37.2187C253.687 37.6771 255.095 38.1075 256.4 38.4911C264.611 40.9084 272.195 44.2115 274.792 57.907C276.599 67.4306 260.184 78.3581 245.702 88.0003C239.695 91.9989 234.023 95.7762 229.453 99.4798C213.518 112.396 183.133 138.574 173.399 147.772C164.172 156.492 86.5811 209.562 65.7242 219.712C44.4108 230.083 23.6387 246.341 18.4338 256.725C17.2671 259.052 17.0174 260.527 17.6227 261.505C17.8874 261.931 18.4338 262.439 19.5355 262.439C20.847 262.439 22.6429 261.685 24.1921 260.954C24.1941 261.141 24.2291 261.333 24.311 261.529C24.7734 262.644 26.2637 262.787 27.5103 262.787C30.9173 262.787 38.0191 261.391 46.6801 259.03C43.5697 261.323 37.3979 265.272 31.7823 268.865C9.58397 283.074 -0.273652 289.974 0.00602536 293.311C0.159848 295.159 1.38443 297.362 6.34371 297.362C9.38819 297.362 13.0979 296.582 16.0795 295.955C17.6267 295.63 18.9671 295.348 19.8931 295.241C19.5555 295.947 18.6895 297.162 18.0752 298.025C16.0855 300.817 14.0278 303.704 15.4931 305.532C15.9326 306.081 16.6808 306.348 17.7775 306.348C21.0587 306.348 28.0666 303.919 34.8438 301.571C39.6822 299.894 44.2519 298.311 47.0138 297.76C51.2309 296.919 71.6733 286.358 91.4415 276.145C106.19 268.525 122.907 259.889 124.706 259.692C128.209 259.692 156.509 257.633 174.36 252.544C178.338 251.41 182.588 250.835 186.992 250.835C197.699 250.835 208.034 254.156 216.889 257.454C216.834 259.604 216.78 262.239 216.724 265.473C216.573 274.346 216.506 283.536 216.528 285.964C216.557 289.356 222.978 295.341 232.044 303.426C235.774 306.752 240.352 310.835 241.193 312.304C239.673 313.247 237.344 313.275 234.455 313.309C229.409 313.37 222.499 313.453 215.331 318.905C211.157 322.081 208.397 326.621 207.771 328.832C207.712 329.037 207.537 329.657 207.923 330.167C208.138 330.449 208.467 330.611 208.828 330.611C209.129 330.611 209.431 330.499 209.757 330.27L210.493 329.745C212.831 328.074 218.306 324.16 221.247 323.044C225.221 321.536 228.141 320.921 231.327 320.921C235.51 320.921 240.454 321.993 248.114 323.973C252.804 325.185 256.809 325.774 260.355 325.774C264.969 325.774 268.319 324.8 271.865 323.769C275.991 322.569 280.256 321.328 287.23 321.328C288.526 321.328 289.892 321.372 291.293 321.46C298.933 321.937 305.778 325.906 309.068 327.813C310.485 328.634 310.913 328.882 311.377 328.882L312.082 328.854L312.346 328.266C312.693 327.498 312.258 327.01 310.167 324.66C306.655 320.716 303.369 318.302 300.192 316.742C302.134 316.365 303.927 315.849 305.77 315.313C309.896 314.114 314.161 312.873 321.134 312.873C322.43 312.873 323.796 312.917 325.197 313.005C332.837 313.482 339.683 317.45 342.972 319.357C344.389 320.179 344.818 320.426 345.281 320.426L345.987 320.398L346.251 319.81C346.598 319.042 346.162 318.554 344.072 316.204C336.636 307.851 330.199 306.313 323.713 305.368C321.166 304.998 319.24 304.145 319.031 303.294C318.858 302.597 319.804 301.418 321.562 300.141C324.68 297.875 327.817 296.726 330.884 296.726C336.319 296.726 339.7 300.286 340.067 301.639C340.233 302.252 340.72 302.47 341.087 302.47C341.462 302.47 341.956 302.242 342.116 301.605C342.417 300.413 342.056 295.191 337.634 292.828C335.426 291.648 332.008 290.998 328.009 290.998C318.564 290.998 308.288 294.312 299.821 299.977C298.134 299.636 296.203 299.453 294.105 299.453C293.523 299.453 292.937 299.47 292.35 299.495C285.117 293.728 272.39 280.305 271.656 275.739C271.174 272.729 270.892 263.218 270.892 254.021C270.892 253.986 270.892 253.953 270.892 253.918C276.885 250.945 282.969 247.441 290.025 243.3C325.344 222.579 353.751 157.325 358.538 136.02ZM250.527 263.931C250.448 270.236 250.416 275.713 250.432 277.51C250.462 280.901 256.881 286.886 265.947 294.971C269.473 298.114 273.751 301.931 274.921 303.581C274.128 303.917 273.34 304.271 272.561 304.646C271.355 304.813 269.945 304.835 268.36 304.854C265.093 304.894 261.044 304.952 256.65 306.46C249.306 300.132 238.555 288.403 237.878 284.198C237.513 281.917 237.379 275.901 237.303 269.117C240.22 268.12 244.564 266.53 250.527 263.931Z" fill="url(#paint0_linear)"/>
<defs>
<linearGradient id="paint0_linear" x1="39.9539" y1="279.991" x2="349.98" y2="96.5056" gradientUnits="userSpaceOnUse">
<stop stop-color="#3E6AC3"/>
<stop offset="1" stop-color="#020E4A"/>
</linearGradient>
</defs>
</svg>
