<svg width="361" height="275" viewBox="0 0 361 275" fill="none" xmlns="http://www.w3.org/2000/svg">
<path d="M358.761 88.3967C358.095 87.7807 357.329 87.4688 356.483 87.4688C353.392 87.4688 350.121 91.8142 347.234 95.6493C346.143 97.0984 344.708 99.006 343.973 99.6408C343.887 98.1788 344.992 94.0267 345.823 90.9062C347.921 83.0187 350.092 74.8642 346.557 72.9666C346.189 72.7692 345.801 72.6686 345.401 72.6686C342.856 72.6686 340.91 76.4698 337.944 82.6719C335.623 87.5266 332.734 93.5693 330.349 93.5693C330.197 93.5693 330.047 93.5433 329.893 93.4885C329.473 92.741 329.51 89.3186 329.538 86.801C329.61 80.2052 329.691 72.7304 325.492 72.1722C325.367 72.1553 325.242 72.1473 325.118 72.1473C321.489 72.1473 319.371 78.9175 317.13 86.0864C316.038 89.5787 314.387 94.8569 313.454 95.2137C312.199 94.9636 309.662 91.1893 307.625 88.1565C304.283 83.1832 301.093 78.5049 298.14 78.7471C295.06 79.0033 295.108 83.3616 295.158 87.9771C295.199 91.7673 295.251 96.4855 293.348 97.506C293.164 97.6047 292.964 97.6525 292.738 97.6525C290.623 97.6525 287.145 93.8732 284.351 90.8365C281.093 87.2964 279.004 85.1257 277.201 85.1257C276.755 85.1257 276.335 85.2632 275.987 85.5233C274.002 87.0073 274.114 91.4932 274.233 96.2423C274.293 98.6362 274.383 102.21 273.889 102.967C272.973 102.842 270.362 101.112 268.047 99.58C262.925 96.1894 256.551 91.9687 251.41 91.9687C250.564 91.9687 249.77 92.0863 249.048 92.3185C243.471 94.1085 242.401 96.7406 241.693 98.4827C241.322 99.3957 241.136 99.8083 240.622 100.028C239.98 100.301 238.94 100.193 237.796 100.021C237.039 99.9059 236.255 99.7883 235.423 99.7883C233.586 99.7883 232.066 100.413 230.775 101.701C229.462 103.01 228.288 104.561 227.152 106.061C225.464 108.294 223.867 110.403 222.329 110.978C221.517 111.282 219.889 112.977 215.303 117.835C205.217 128.516 184.231 150.743 173.475 150.744C171.463 150.744 169.959 149.941 168.879 148.288C167.094 145.556 164.419 140.553 161.033 134.218C150.34 114.214 134.181 83.9825 120.434 76.9023C83.9957 58.1364 52.8535 28.0377 36.1231 11.8681C26.9991 3.04974 23.7578 0 22.0682 0C21.5893 0 21.1694 0.217268 20.9144 0.596991C20.4255 1.32355 20.6015 2.45973 21.5623 4.79088C24.4727 11.8491 31.1442 21.5346 36.506 29.3164C39.6034 33.8123 43.0546 38.8234 43.9804 40.9214C41.4609 39.7593 36.614 34.6534 32.6329 30.4595C25.6194 23.0744 21.1494 18.5895 18.197 18.5895C17.6331 18.5895 17.1343 18.7509 16.7173 19.0669C14.4568 20.7791 17.7061 25.3428 23.6438 33.2621C26.0103 36.4185 29.4946 41.0659 29.9325 42.6685C28.6717 42.4014 25.8723 40.1938 23.5958 38.3978C19.7367 35.3541 15.7446 32.2067 12.8282 32.2067C12.2683 32.2067 11.7554 32.3213 11.3025 32.5465C10.6357 32.8784 10.2008 33.4196 10.0428 34.1123C9.5619 36.2252 11.7754 39.2709 15.2087 43.6771C16.7043 45.5956 18.9199 48.4401 19.0938 49.4537C18.9559 49.4816 18.8039 49.4955 18.6409 49.4955C17.0793 49.4955 14.7928 48.2846 12.5812 47.1125C10.1588 45.8288 7.87027 44.6169 5.98069 44.6169C5.33583 44.6169 4.76095 44.7604 4.27206 45.0425C2.12153 46.2833 4.0661 50.1394 6.12565 54.2206C6.68853 55.3379 7.42137 56.79 7.68831 57.5564C7.17942 57.6272 6.34361 57.6282 5.73874 57.6292C3.79416 57.6321 1.7826 57.6351 0.689839 58.7444C0.22994 59.2098 -0.0070085 59.8268 0.00298932 60.5284C0.0449802 63.1755 42.1538 153.167 91.744 187.849C98.3785 192.49 100.952 200.788 103.44 208.813C104.349 211.743 105.207 214.51 106.246 217.024C106.62 217.93 106.625 218.687 106.263 219.41C104.699 222.523 96.6129 224.594 88.0518 226.785C83.1119 228.051 78.005 229.359 73.0501 231.063C11.3295 238.635 11.3325 242.05 11.3325 243.692C11.3325 246.998 13.538 248.576 15.1487 249.728C16.7733 250.89 17.0083 251.22 16.7213 251.936C16.3454 252.873 15.4426 253.838 14.4878 254.86C12.4233 257.069 9.85284 259.818 11.3955 263.919C11.9534 265.401 13.784 266.122 16.9913 266.122C22.5361 266.122 31.5361 264.039 38.1517 262.278C23.2969 270.743 23.2959 272.289 23.2959 272.845C23.2959 273.598 23.2959 275 31.843 275C40.3782 275 53.8982 273.46 63.909 269.122C67.0044 267.78 69.6418 266.491 72.1922 265.245C74.6007 264.068 76.8792 262.955 79.1707 261.991C105.291 263.396 145.495 265.031 173.213 265.031C188.814 265.031 198.639 264.51 202.412 263.485C207.47 262.109 213.264 259.877 219.401 257.514C230.723 253.153 242.429 248.644 251.498 248.644C253.355 248.644 255.049 248.841 256.534 249.231C269.819 252.715 274.902 263.206 274.952 263.311L275.153 263.737L275.609 263.853C275.688 263.873 276.115 263.974 276.776 263.974C278.688 263.974 283.372 263.074 285.567 254.741C286.856 249.844 284.341 246.232 283.405 245.102C283.64 242.44 284.181 229.27 273.084 220.523C266.351 215.215 259.673 212.775 255.255 211.16C253.167 210.396 250.305 209.351 250.355 208.797C250.809 205.912 278.914 148.625 319.064 135.891C350.103 126.046 357.56 106.688 359.326 98.8236C360.406 93.9948 360.175 89.7063 358.761 88.3967Z" fill="url(#paint0_linear)"/>
<defs>
<linearGradient id="paint0_linear" x1="32.9928" y1="258.552" x2="341.705" y2="226.315" gradientUnits="userSpaceOnUse">
<stop stop-color="#3E6AC3"/>
<stop offset="1" stop-color="#020E4A"/>
</linearGradient>
</defs>
</svg>
