<svg width="300" height="340" viewBox="0 0 300 340" fill="none" xmlns="http://www.w3.org/2000/svg">
<path d="M275.027 70.7654C296.299 59.4969 300.079 57.3165 299.999 55.1352C299.98 54.6457 299.733 53.9631 298.657 53.4877C296.543 52.5528 294.507 51.9989 292.537 51.4632C288.496 50.3634 285.006 49.4135 281.686 45.5485C280.118 43.723 278.384 40.4058 276.376 36.5648C270.021 24.4087 260.416 6.03835 239.73 1.20827C236.291 0.407113 232.814 0 229.393 0C216.706 0 205.139 5.42315 195.944 15.6824C185.68 27.1349 178.99 43.7169 176.057 64.9703C172.377 91.6458 132.412 142.109 108.535 172.26C100.429 182.495 94.0263 190.579 91.5442 194.593C82.3765 209.413 65.0627 228.901 51.1502 244.561C35.1055 262.621 26.7472 272.213 27.0888 275.803C27.1561 276.51 27.5142 276.927 27.803 277.151C28.2015 277.46 28.7221 277.617 29.3515 277.617C34.4648 277.617 51.5518 265.43 67.3699 253.387C56.603 264.375 42.8313 279.3 29.3753 293.885C25.2101 298.399 21.1153 302.836 17.211 307.046C5.0768 320.131 -1.55702 331.219 0.31233 335.297C0.786396 336.33 1.7542 336.9 3.03666 336.9C6.48554 336.9 11.7406 332.851 15.5425 329.453C22.4154 323.31 26.4564 321.024 27.9997 320.914C27.9955 321.371 27.6115 322.702 25.7991 325.279C21.7053 331.096 20.0596 336.035 21.3948 338.492C21.9227 339.464 22.877 340 24.0808 340C26.6158 340 30.2489 337.585 34.3126 333.207C45.2741 321.396 82.627 287.745 100.578 271.575C105.555 267.092 108.898 264.073 109.722 263.288C109.959 263.206 110.775 263.041 113.573 263.041C115.743 263.041 118.698 263.095 122.12 263.191C127.36 263.34 133.88 263.463 141.249 263.463C141.252 263.463 141.252 263.463 141.255 263.463C144.74 263.463 148.137 263.415 151.466 263.329C151.62 266.415 151.368 270.155 150.245 270.969C150.141 271.043 149.991 271.136 149.795 271.257C148.509 272.057 145.495 273.933 140.881 279.015C139.033 281.052 136.994 283.833 137.779 285.521C138.062 286.128 138.664 286.49 139.392 286.49C140.269 286.49 141.327 285.964 142.368 285.011C149.945 278.069 159.687 274.087 169.093 274.087C170.517 274.087 171.94 274.18 173.325 274.364C179.647 275.205 180.78 275.679 182.837 276.54C183.778 276.934 184.949 277.422 186.859 278.045C187.718 278.324 188.489 277.886 188.638 277.114C188.995 275.261 185.068 270.144 181.858 268.935C178.925 267.829 175.634 267.269 172.081 267.269C168.371 267.269 165.091 267.857 162.696 268.288C161.6 268.485 160.639 268.657 160.048 268.69C159.962 267.374 160.004 264.831 160.057 263.002C173.941 262.296 186.365 260.771 197.373 258.401C205.148 262.942 212.321 267.246 213.05 268.017C213.395 268.473 212.825 270.568 212.409 272.098C211.893 273.996 211.309 276.148 211.169 278.397C210.981 281.429 212.072 284.023 213.165 285.15C213.655 285.655 214.171 285.91 214.701 285.91C215.068 285.91 216.275 285.757 216.397 283.785C216.577 280.888 220.832 271.719 224.161 268.717C229.59 263.824 234.286 263.371 241.347 263.629C247.045 263.836 251.359 265.251 253.433 265.931C254.326 266.225 254.734 266.359 255.083 266.359C255.499 266.359 255.865 266.16 256.062 265.826L256.34 265.23L256.038 264.727C255.329 263.546 251.405 258.792 245.162 257.123C241.559 256.159 238.198 255.67 235.175 255.67C229.351 255.67 225.829 257.408 223.257 258.677C221.841 259.376 220.803 259.913 219.978 259.759C218.781 259.532 215.005 257.583 210.394 255.004C224.511 250.599 235.774 244.453 244.343 236.51C287.727 196.292 285.612 147.046 276.198 112.763C273.634 103.427 270.317 96.6578 267.896 91.7161C262.764 81.2427 261.215 78.0823 275.027 70.7654Z" fill="url(#paint0_linear)"/>
<defs>
<linearGradient id="paint0_linear" x1="277.194" y1="42.2192" x2="50.4567" y2="334.09" gradientUnits="userSpaceOnUse">
<stop stop-color="#3E6AC3"/>
<stop offset="1" stop-color="#020E4A"/>
</linearGradient>
</defs>
</svg>
