<svg width="301" height="350" viewBox="0 0 301 350" fill="none" xmlns="http://www.w3.org/2000/svg">
<path d="M262.672 325.454C263.091 324.968 263.232 324.361 263.072 323.746C262.2 320.393 250.413 315.97 225.598 307.363C209.622 301.821 193.104 296.091 187.347 292.151C185.108 290.619 177.842 281.554 172.004 274.271C167.331 268.441 164.134 264.477 162.451 262.76C162.991 262.628 163.695 262.483 164.385 262.339C169.862 261.202 182.689 258.542 199.883 247.901C221.168 234.726 242.323 213.749 262.759 185.551C305.406 126.707 300.902 95.8303 298.979 82.6461C298.563 79.7945 298.261 77.7343 298.609 76.6141C299.829 72.6737 300.015 70.6296 299.249 69.559C298.906 69.0783 298.376 68.8142 297.758 68.8142C296.781 68.8142 295.694 69.4487 294.544 70.1216C294.029 70.4222 293.304 70.8462 292.862 71.003C292.864 70.49 293.064 69.1633 294.284 65.8908C297.293 57.8178 297.042 56.394 296.527 55.628C296.27 55.2465 295.862 55.0279 295.408 55.0279C294.182 55.0279 292.599 56.7087 289.561 60.6552C294.759 46.7646 297.345 38.8312 296.166 36.7173C295.902 36.2448 295.468 35.9736 294.976 35.9736C293.474 35.9736 291.98 38.3981 287.722 48.0184C287.795 47.6865 287.868 47.3515 287.943 47.0146C293.025 23.9136 293.394 19.7101 291.923 18.8064C291.723 18.683 291.495 18.6182 291.265 18.6182C289.665 18.6182 288.486 21.3099 284.633 33.7747C284.518 34.1491 284.4 34.5326 284.279 34.9202C284.348 34.481 284.419 34.0388 284.49 33.5986C285.83 25.1876 287.858 12.4769 287.621 4.20248C287.553 1.81942 287.392 0 286.023 0C284.508 0 283.839 1.6221 279.569 20.2444C278.132 26.5091 276.647 32.9874 275.346 37.5825C271.666 50.5674 262.307 74.0792 255.288 86.1089C240.566 111.341 236.691 116.263 184.817 160.464C160.189 181.448 129.227 203.918 125.202 205.759C123.134 203.481 113.446 185.746 108.68 169.273C104.548 154.992 93.9742 138.635 87.6585 128.862C85.544 125.592 83.8742 123.008 83.392 121.922C82.0996 119.009 79.2905 117.245 76.8104 115.69C75.3224 114.756 73.9164 113.875 73.2198 112.95C71.9096 111.209 71.0223 108.185 70.0826 104.981C68.5788 99.8527 66.8744 94.0392 62.765 91.134C61.5526 90.2769 60.5082 89.8611 59.5695 89.8611C58.2149 89.8611 57.375 90.6929 56.7012 91.3607C56.0718 91.983 55.6874 92.3362 55.0896 92.3362C54.7191 92.3362 54.2616 92.1986 53.733 91.9274C51.4397 90.7526 48.7679 82.5904 46.8175 76.6303C44.4629 69.4356 43.4412 66.6629 42.0391 66.0983C41.7931 65.9991 41.5402 65.9495 41.2882 65.9495C39.3447 65.9495 38.32 68.6908 37.329 71.343C37.0652 72.0473 36.7045 73.0117 36.4131 73.5935C35.6097 72.2861 34.2067 68.8122 33.1396 66.1721C30.1141 58.685 28.7258 55.6047 27.1578 55.2971L26.9187 55.2738C26.1687 55.2738 24.4791 55.2728 21.7846 70.5628C21.2965 69.1937 20.7126 67.4957 20.1385 65.824C14.6458 49.8489 12.9789 46.1757 11.2192 46.1757L11.0245 46.1909C9.14322 46.4904 8.65116 49.9097 7.82513 62.3795C7.57021 66.2278 7.24019 71.2105 6.78568 73.5429C6.76493 73.4852 6.74517 73.4255 6.72343 73.3618C5.50415 69.7563 4.5467 68.3508 3.30667 68.3508C2.04095 68.3508 0.129028 68.3508 0.129028 88.4464C0.129028 103.755 7.08012 146.056 15.0025 165.399C22.085 182.697 23.5533 184.194 26.4809 187.176L26.8376 187.54C27.5105 188.229 28.0816 188.661 28.5164 188.948C28.0065 189.47 27.2427 190.283 26.1865 191.614C23.0573 195.559 21.9358 197.181 22.585 198.576C23.0938 199.672 24.4505 199.823 25.8417 199.823C26.7438 199.823 27.8889 199.752 29.7939 199.579L29.9817 199.562C34.7817 199.122 37.8023 198.958 45.1358 207.927C51.2262 215.377 53.5729 231.884 55.4572 245.148C55.8425 247.858 56.214 250.469 56.5974 252.898C58.9698 267.883 60.9884 274.047 84.5243 293.329C102.421 307.991 131.042 313.773 149.98 317.599C153.687 318.347 156.896 318.995 159.54 319.616C166.6 322.905 174.923 327.624 183.736 332.617C186.17 333.998 188.625 335.389 191.076 336.762C207.707 346.082 223.822 349.465 230.595 349.465C231.927 349.465 232.835 349.331 233.371 349.057C233.455 349.014 233.72 348.913 234.371 348.913C235.472 348.913 237.009 349.192 238.495 349.461C240.028 349.738 241.477 350 242.595 350C244.885 350 245.132 348.708 245.132 348.151C245.132 348.087 245.139 348.051 245.136 348.045C245.356 347.868 246.375 347.809 247.122 347.766C248.859 347.666 251.236 347.528 253.839 346.297C256.446 345.065 256.696 343.873 256.751 342.443C256.792 341.38 256.839 340.174 260.506 337.931C262.084 336.966 262.935 336.019 263.183 334.952C263.488 333.638 262.819 332.557 262.172 331.511C261.112 329.801 260.198 328.325 262.672 325.454Z" fill="url(#paint0_linear)"/>
<defs>
<linearGradient id="paint0_linear" x1="17.7869" y1="87.0247" x2="253.631" y2="317.023" gradientUnits="userSpaceOnUse">
<stop stop-color="#3E6AC3"/>
<stop offset="1" stop-color="#020E4A"/>
</linearGradient>
</defs>
</svg>
