<svg width="357" height="364" viewBox="0 0 357 364" fill="none" xmlns="http://www.w3.org/2000/svg">
<path d="M345.809 84.0955C345.286 83.5275 344.736 82.9294 344.244 82.3813C346.475 83.2309 348.138 83.6173 349.501 83.6173C354.532 83.6173 354.532 78.1612 354.532 76.3682C354.532 67.1003 326.137 57.2394 287.014 52.9235C284.444 52.64 281.846 52.4962 279.291 52.4962C243.591 52.4962 218.884 80.3117 209.583 90.7836C208.777 91.6901 208.078 92.4768 207.489 93.1168C202.563 98.4591 193.177 115.99 185.636 130.077C181.679 137.469 177.591 145.108 176.596 146.187C176.485 146.208 176.238 146.238 175.757 146.238C170.185 146.238 149.399 142.343 133.386 133.142C122.547 126.915 116.425 113.046 109.337 96.9885C104.943 87.0317 99.9623 75.7482 93.2221 65.1106C81.296 46.2893 64.082 37.3689 55.8087 33.0809C54.0131 32.1504 52.1678 31.194 51.3668 30.607C58.1079 26.5107 69.0915 18.7883 70.7134 11.1388C71.0037 9.76604 70.8441 8.69079 70.2366 7.94002C69.666 7.23617 68.7613 6.87876 67.5443 6.87876C64.5927 6.87876 59.9393 8.9903 56.2007 10.6865C55.281 11.1038 54.2376 11.5771 53.3987 11.9245C53.8695 11.2895 54.461 10.5488 54.9578 9.92677C57.8476 6.30869 59.8635 3.60012 59.4735 1.69024C59.3458 1.06326 58.9737 0.567073 58.3962 0.255582C58.08 0.086858 57.7209 0 57.3299 0C54.9518 0 51.4715 3.31957 46.8131 8.00891C45.4575 9.37567 43.8555 10.987 42.8411 11.8247C42.9907 11.1168 43.267 10.1883 43.4775 9.4825C44.3034 6.70704 45.1583 3.83573 43.9244 2.17944C43.5543 1.68325 42.8271 1.09221 41.4605 1.09221C38.6635 1.09221 36.2116 5.80751 33.0515 12.4686C32.2665 14.1249 31.3269 16.1077 30.7363 17.0282C30.473 16.2395 30.2396 14.7519 30.073 13.6866C29.5353 10.2522 29.0266 7.00755 26.7463 7.00755C24.6655 7.00755 23.4835 10.4519 21.7298 16.0737C21.0705 18.1873 20.0909 21.3231 19.4845 22.0589C18.8321 21.7634 17.4426 20.0013 16.5907 18.9211C14.8171 16.6727 13.2859 14.7309 11.679 14.7309C11.5822 14.7309 11.4864 14.7389 11.3927 14.7519C9.49442 15.0384 9.53133 17.6891 9.57921 21.0466C9.60016 22.5751 9.65103 26.1542 9.01163 26.4508C8.81113 26.4737 8.62759 26.4847 8.45901 26.4847C7.51836 26.4847 7.21612 26.1532 6.66649 25.5502C6.28245 25.1279 5.80365 24.6038 5.05253 24.2104C3.9423 23.6314 2.88594 23.7771 2.16275 24.5668C0.352276 26.5396 0.710381 32.441 1.51537 41.9265C1.69791 44.071 1.86948 46.0986 1.98021 47.9416C2.22061 51.9641 3.63806 54.7755 6.18869 56.3499C5.55627 58.2727 4.82111 60.8086 4.40714 63.2696C3.91138 66.2198 3.95328 70.0884 4.88594 71.1936C5.13432 71.4881 5.46749 71.6509 5.8246 71.6509C6.11986 71.6509 6.66749 71.5361 7.03757 70.7663C8.49193 67.7393 10.2854 66.4993 12.1598 65.8504C10.9677 67.6504 11.2909 70.4438 11.8326 74.9085C12.1209 77.2877 12.479 80.2478 12.6944 83.8C13.4086 95.6077 20.5667 99.1889 23.6231 100.717C23.8635 100.838 24.0022 100.957 24.0341 101.071C24.2356 101.804 22.8002 104.052 21.1373 106.657C19.1184 109.816 16.3533 114.145 13.256 120.346C6.32136 134.227 4.21861 158.497 7.63308 185.267C10.2675 205.917 52.5947 248.166 75.3339 270.864C79.0695 274.592 82.2955 277.812 84.7573 280.347C86.1698 281.801 87.5832 283.116 88.9977 284.308C78.8581 302.178 66.6685 323.411 65.5513 324.637C65.5304 324.655 65.4635 324.674 65.3448 324.674C64.6805 324.674 63.4615 324.122 62.2825 323.59C60.9239 322.975 59.3837 322.279 57.8326 321.964C57.0645 321.809 56.469 321.733 56.0122 321.733C54.7962 321.733 54.4451 322.353 54.3433 322.722C54.1149 323.561 54.3323 324.45 59.0366 327.329C57.2421 327.891 53.5583 328.608 50.7034 329.164C46.056 330.068 41.251 331.005 38.6525 332.043C31.2341 335.008 30.5249 335.858 30.7383 336.974C30.9648 338.153 32.5199 338.153 33.267 338.153C34.5279 338.153 36.454 337.971 39.1593 337.594C49.5004 336.157 52.0461 336.128 55.2421 336.184C55.6461 336.191 56.063 336.198 56.5149 336.203C56.3304 336.336 56.1408 336.471 55.9573 336.601C53.0336 338.683 48.1408 342.169 46.6964 347.464C46.476 348.274 46.4052 348.911 46.7742 349.396C46.9937 349.682 47.3299 349.847 47.6959 349.847C48.4072 349.847 49.0276 349.276 50.3862 348.022C51.5204 346.976 52.9309 345.675 54.4161 344.758C57.3658 342.94 71.5922 335.88 75.259 335.357C75.5583 335.314 75.8735 335.293 76.1967 335.293C77.9792 335.293 79.8236 335.923 81.6072 336.533C83.1902 337.074 84.6845 337.585 86.0102 337.585C86.9528 337.585 87.3069 337.086 87.4336 336.787C87.8645 335.776 86.9598 334.834 85.1573 332.955C83.3169 331.037 80.5349 328.138 80.5349 326.063C80.5349 325.281 81.675 322.891 83.5453 319.502C86.472 319.145 90.0072 318.153 93.4226 315.767C97.266 313.081 97.7827 312.213 97.4905 311.283C97.3827 310.939 97.0366 310.363 95.9314 310.363C94.865 310.363 92.9648 310.865 90.9548 311.397L89.8187 311.696C89.2291 311.849 88.5917 311.926 87.9264 311.929C91.6431 305.706 96.3014 298.254 100.806 291.206C103.566 292.122 106.359 292.589 109.204 292.589C112.903 292.589 116.361 291.815 119.541 290.734C119.227 311.06 118.368 340.099 117.131 345.324C116.808 345.099 116.418 344.815 116.074 344.565C114.009 343.06 111.181 341.002 108.944 340.871C108.487 340.871 108.098 341.121 107.929 341.523C107.62 342.26 108.112 342.759 109.002 343.665C109.388 344.059 110.318 345.006 110.623 345.555C110.254 345.62 109.301 345.605 108.092 345.416C106.739 345.206 105.169 345.099 103.429 345.099C96.1239 345.099 87.288 346.965 83.9623 347.668C83.5603 347.753 83.2351 347.82 82.9987 347.867C82.0401 348.059 81.5753 348.498 81.6172 349.173C81.68 350.158 81.7079 350.605 91.7788 351.686C96.6316 352.207 102.593 352.706 106.347 352.975C108.642 353.14 109.816 353.37 110.404 353.552C109.875 353.85 108.808 354.301 106.702 354.903C100.614 356.645 95.7219 359.922 93.5743 362.438C93.1184 362.972 93.269 363.378 93.3548 363.565L93.686 364H94.3244C94.7433 364 95.2491 363.959 96.9389 363.23C98.7234 362.46 101.166 361.574 103.581 360.862C107.572 359.688 112.671 358.365 120.231 357.458C124.872 356.9 126.329 355.718 127.393 354.855C127.95 354.403 128.231 354.175 128.886 354.102C129.937 353.991 131.938 354.907 133.701 355.702C135.785 356.639 137.765 357.503 139.09 357.341C139.741 357.26 140.23 356.895 140.428 356.34C140.924 354.957 139.803 352.8 132.297 344.846C131.549 344.053 131.091 341.343 130.852 337.378C133.509 336.202 136.652 334.221 139.264 330.873C142.018 327.346 142.317 326.347 141.929 325.549C141.717 325.114 141.28 324.855 140.757 324.855C139.795 324.855 138.259 325.782 135.627 327.42L134.624 328.042C133.537 328.711 132.196 329.102 130.644 329.235C130.635 316.319 131.728 297.918 132.923 283.411C135.022 281.17 136.772 278.425 138.486 275.73C141.868 270.415 145.061 265.393 150.334 265.393C151.229 265.393 152.188 265.536 153.183 265.818C155.76 266.55 158.296 266.891 161.165 266.891C162.974 266.891 164.725 266.763 166.582 266.627C168.58 266.481 170.645 266.332 172.94 266.332C178.337 266.332 183.673 267.224 189.731 269.138C193.11 270.206 195.979 270.748 198.257 270.748C202.314 270.748 203.924 269.019 204.559 267.568C206.576 262.964 201.825 255.379 196.705 249.816C190.605 243.184 186.082 238.872 183.09 236.017C181.622 234.618 180.304 233.362 179.662 232.615C180.242 232.592 181.309 232.618 182.602 232.663C184.001 232.711 185.743 232.771 187.832 232.771C197.84 232.771 208.144 231.319 219.334 228.332C226.318 226.469 227.665 224.466 231.661 218.523C232.202 217.718 232.794 216.838 233.461 215.868C235.076 213.517 236.005 212.024 236.621 211.037C237.569 209.514 237.569 209.514 238.471 209.227C238.854 209.106 239.349 208.948 240.021 208.697C241.477 208.15 243.399 207.816 245.435 207.464C248.889 206.864 252.804 206.186 256.254 204.243C258.542 202.954 260.444 202.791 262.124 202.645C264.245 202.462 266.248 202.289 267.955 199.938C269.226 198.19 269.434 196.176 269.618 194.4C269.882 191.85 270.112 190.494 272.11 189.924C273.492 189.528 274.379 188.916 274.827 188.053C275.552 186.651 274.973 184.994 274.239 182.895C273.722 181.418 273.137 179.745 272.821 177.748C272.302 174.452 272.991 174.035 275.272 172.652C276.713 171.778 278.687 170.582 280.932 168.202C284.891 164.007 283.433 161.081 282.468 159.145C281.825 157.854 281.621 157.307 282.041 156.676C290.394 144.135 293.625 137.619 294.866 134.36C296.305 130.581 295.692 128.132 295.045 125.538C294.423 123.051 293.781 120.479 294.899 116.159C296.358 110.526 295.585 108.512 294.517 105.722C293.797 103.846 292.983 101.719 292.583 97.7133C292.095 92.8283 288.26 90.9982 285.803 90.1616C287.016 89.7972 288.742 89.312 290.854 88.721C292.063 88.3825 293.445 88.2098 294.957 88.2098C303.417 88.2098 315.338 93.5611 325.856 98.2833C335.329 102.536 344.278 106.554 350.118 106.554C351.639 106.554 352.942 106.279 353.99 105.738C355.564 104.925 356.502 103.726 356.775 102.177C357.69 97.0024 350.54 89.2361 345.809 84.0955Z" fill="url(#paint0_linear)"/>
<defs>
<linearGradient id="paint0_linear" x1="41.8974" y1="181.703" x2="328.881" y2="103.135" gradientUnits="userSpaceOnUse">
<stop stop-color="#3E6AC3"/>
<stop offset="1" stop-color="#020E4A"/>
</linearGradient>
</defs>
</svg>
