<svg width="217" height="217" viewBox="0 0 217 217" fill="none" xmlns="http://www.w3.org/2000/svg">
<path d="M96.3205 0.774658C46.3092 6.37066 6.0827 47.7811 0.646686 98.1452C-4.78933 150.748 24.5651 197.754 69.1404 215.661C72.4021 216.78 75.6637 214.542 75.6637 210.065V192.158C75.6637 192.158 71.3149 193.277 65.8788 193.277C50.658 193.277 44.1348 179.847 43.0476 172.012C41.9604 167.536 39.786 164.178 36.5244 160.82C33.2628 159.701 32.1756 159.701 32.1756 158.582C32.1756 156.344 35.4372 156.344 36.5244 156.344C43.0476 156.344 48.4836 164.178 50.658 167.536C56.094 176.489 62.6172 178.728 65.8788 178.728C70.2277 178.728 73.4893 177.608 75.6637 176.489C76.7509 168.655 80.0125 160.82 86.5357 156.344C61.53 150.748 43.0476 136.198 43.0476 111.576C43.0476 99.2644 48.4836 86.9532 56.094 77.9995C55.0068 75.7611 53.9196 70.1651 53.9196 62.3307C53.9196 57.8539 53.9196 51.1387 57.1812 44.4235C57.1812 44.4235 72.4021 44.4235 87.6229 58.9731C93.0589 56.7347 100.669 55.6155 108.28 55.6155C115.89 55.6155 123.501 56.7347 130.024 58.9731C144.157 44.4235 160.465 44.4235 160.465 44.4235C162.64 51.1387 162.64 57.8539 162.64 62.3307C162.64 71.2843 161.553 75.7611 160.465 77.9995C168.076 86.9532 173.512 98.1452 173.512 111.576C173.512 136.198 155.029 150.748 130.024 156.344C136.547 161.94 140.896 172.012 140.896 182.085V211.184C140.896 214.542 144.157 217.9 148.506 216.78C188.733 199.992 217 159.701 217 112.695C217 45.5427 161.553 -7.05975 96.3205 0.774658Z" fill="#F6E535"/>
</svg>
