<svg width="216" height="217" viewBox="0 0 216 217" fill="none" xmlns="http://www.w3.org/2000/svg">
<path d="M195.622 151.636C195.622 157.531 194.466 163.368 192.22 168.815C189.975 174.261 186.683 179.21 182.534 183.379C178.384 187.547 173.458 190.854 168.037 193.11C162.616 195.366 156.805 196.527 150.937 196.527H65.0632C53.2121 196.527 41.8462 191.798 33.4662 183.379C25.0861 174.96 20.3783 163.542 20.3783 151.636V65.3577C20.3783 53.4516 25.0861 42.0332 33.4662 33.6143C41.8462 25.1955 53.2121 20.4658 65.0632 20.4658H150.937C162.788 20.4658 174.154 25.1955 182.534 33.6143C190.914 42.0332 195.622 53.4516 195.622 65.3577V151.636ZM216 65.3577C216 29.2611 186.867 0 150.93 0H65.07C29.1263 0 0 29.2611 0 65.3577V151.636C0 187.732 29.133 217 65.07 217H150.93C168.188 217 184.738 210.113 196.941 197.853C209.144 185.594 216 168.966 216 151.629V65.3577ZM108.365 144.224C99.3057 144.213 90.6211 140.593 84.2156 134.158C77.81 127.723 74.2067 118.998 74.196 109.897C74.2067 100.796 77.81 92.0714 84.2156 85.6362C90.6211 79.201 99.3057 75.581 108.365 75.5703C117.424 75.5792 126.11 79.1987 132.515 85.6342C138.921 92.0698 142.524 100.796 142.533 109.897C142.524 118.998 138.921 127.724 132.515 134.16C126.11 140.595 117.424 144.215 108.365 144.224ZM108.365 56.3115C78.9548 56.3115 55.026 80.351 55.026 109.897C55.026 139.45 78.9548 163.482 108.365 163.482C137.781 163.482 161.71 139.45 161.71 109.897C161.71 80.351 137.781 56.3115 108.365 56.3115ZM164.821 39.9483C163.154 39.9483 161.502 40.2784 159.961 40.9196C158.421 41.5608 157.02 42.5006 155.841 43.6853C154.662 44.8701 153.726 46.2767 153.088 47.8246C152.45 49.3726 152.121 51.0317 152.121 52.7073C152.121 54.3828 152.45 56.0419 153.088 57.5899C153.726 59.1379 154.662 60.5444 155.841 61.7292C157.02 62.914 158.421 63.8538 159.961 64.495C161.502 65.1362 163.154 65.4662 164.821 65.4662C168.19 65.4662 171.42 64.1219 173.802 61.7292C176.184 59.3364 177.522 56.0911 177.522 52.7073C177.522 49.3234 176.184 46.0781 173.802 43.6853C171.42 41.2926 168.19 39.9483 164.821 39.9483Z" fill="#F6E535"/>
</svg>
