<svg width="217" height="217" viewBox="0 0 217 217" fill="none" xmlns="http://www.w3.org/2000/svg">
<path d="M171.792 0H45.2083C20.2443 0 0 20.2443 0 45.2083V171.792C0 196.756 20.2443 217 45.2083 217H171.792C196.765 217 217 196.756 217 171.792V45.2083C217 20.2443 196.765 0 171.792 0ZM72.3333 171.792H45.2083V72.3333H72.3333V171.792ZM58.7708 60.8685C50.0366 60.8685 42.9479 53.7256 42.9479 44.919C42.9479 36.1124 50.0366 28.9695 58.7708 28.9695C67.5051 28.9695 74.5938 36.1124 74.5938 44.919C74.5938 53.7256 67.5141 60.8685 58.7708 60.8685ZM180.833 171.792H153.708V121.122C153.708 90.6698 117.542 92.9755 117.542 121.122V171.792H90.4167V72.3333H117.542V88.2919C130.164 64.9101 180.833 63.1832 180.833 110.679V171.792Z" fill="#F6E535"/>
</svg>
